<?xml version="1.0" encoding="utf-8"?>
<!-- Generator: Adobe Illustrator 26.0.3, SVG Export Plug-In . SVG Version: 6.00 Build 0)  -->
<svg version="1.1" xmlns="http://www.w3.org/2000/svg" xmlns:xlink="http://www.w3.org/1999/xlink" x="0px" y="0px"
	 viewBox="0 0 39.47 42.4" style="enable-background:new 0 0 39.47 42.4;" xml:space="preserve">
<style type="text/css">
	.st0{fill:#CCCCCC;}
	.st1{fill:none;stroke:#FF0000;stroke-width:4;stroke-miterlimit:10;}
	.st2{fill:#1D133F;}
	.st3{fill:#64CCBA;}
	.st4{fill:#FFFFFF;}
	.st5{fill:none;stroke:#64CCBA;stroke-width:3.8298;stroke-linecap:round;stroke-miterlimit:10;}
</style>
<g id="Layer_2">
</g>
<g id="Layer_1">
	<path class="st3" d="M37.52,37.96L27.28,27.73c2.98-2.86,4.83-6.87,4.83-11.32c0-8.68-7.03-15.71-15.71-15.71S0.7,7.73,0.7,16.41
		s7.03,15.71,15.71,15.71c2.83,0,5.48-0.76,7.78-2.07l10.62,10.63c0.37,0.37,0.86,0.56,1.35,0.56s0.98-0.19,1.35-0.56
		C38.27,39.92,38.27,38.71,37.52,37.96z M21.85,27.71c-1.65,0.8-3.49,1.25-5.44,1.25c-6.93,0-12.56-5.62-12.56-12.56
		S9.47,3.85,16.41,3.85s12.56,5.62,12.56,12.56c0,3.58-1.51,6.8-3.91,9.09C24.11,26.39,23.03,27.14,21.85,27.71z"/>
</g>
</svg>
