<?xml version="1.0" encoding="utf-8"?>
<!-- Generator: Adobe Illustrator 26.0.3, SVG Export Plug-In . SVG Version: 6.00 Build 0)  -->
<svg version="1.1" xmlns="http://www.w3.org/2000/svg" xmlns:xlink="http://www.w3.org/1999/xlink" x="0px" y="0px"
	 viewBox="0 0 342.85 80.32" style="enable-background:new 0 0 342.85 80.32;" xml:space="preserve">
<style type="text/css">
	.st0{fill:#CCCCCC;}
	.st1{fill:none;stroke:#FF0000;stroke-width:4;stroke-miterlimit:10;}
	.st2{fill:#1D133F;}
	.st3{fill:#64CCBA;}
	.st4{fill:#FFFFFF;}
</style>
<g id="Layer_2">
</g>
<g id="Layer_1">
	<g>
		<path class="st4" d="M95.08,42.09c0-12.17,9.98-21.78,22.46-21.78c5.99,0,9.98,1.56,12.92,3.18c0.5,0.25,0.62,0.69,0.38,1.06
			l-2.18,4.55c-0.19,0.5-0.62,0.5-1,0.31c-2.62-1.37-5.74-2.81-10.29-2.81c-8.11,0-15.04,6.86-15.04,15.47
			c0,9.23,6.8,15.6,15.1,15.6c4.49,0,7.86-1.37,10.48-2.87c0.44-0.25,0.75-0.19,1,0.25l2.18,4.68c0.19,0.44,0.12,0.75-0.37,1
			c-3.25,1.75-7.24,3.24-13.35,3.24C104.19,63.99,95.08,55.44,95.08,42.09z"/>
		<path class="st4" d="M147.12,20.87c0.38,0,0.75,0.37,0.75,0.81v40.93c0,0.44-0.37,0.75-0.75,0.75h-5.49
			c-0.37,0-0.75-0.31-0.75-0.75V21.68c0-0.44,0.38-0.81,0.75-0.81H147.12z"/>
		<path class="st4" d="M190.55,21.68c0-0.44,0.31-0.81,0.75-0.81h5.12c0.44,0,0.81,0.37,0.81,0.81v40.93c0,0.44-0.38,0.75-0.81,0.75
			h-4.87c-0.62,0-0.94-0.12-1.37-0.81l-23.65-30.14v30.2c0,0.44-0.31,0.75-0.75,0.75h-5.18c-0.37,0-0.75-0.31-0.75-0.75V21.68
			c0-0.44,0.38-0.81,0.75-0.81h4.87c0.62,0,0.94,0.19,1.44,0.81l23.65,30.2V21.68z"/>
		<path class="st4" d="M239.65,20.87c0.44,0,0.75,0.37,0.75,0.81v4.62c0,0.44-0.31,0.75-0.75,0.75h-23.46v11.92h20.22
			c0.44,0,0.75,0.31,0.75,0.75v4.68c0,0.37-0.31,0.75-0.75,0.75h-20.22v12.04h23.46c0.44,0,0.75,0.37,0.75,0.75v4.68
			c0,0.44-0.31,0.75-0.75,0.75h-29.7c-0.37,0-0.75-0.31-0.75-0.75V21.68c0-0.44,0.38-0.81,0.75-0.81H239.65z"/>
		<path class="st4" d="M293.5,62.61c0,0.44-0.31,0.75-0.75,0.75h-5.24c-0.37,0-0.75-0.31-0.75-0.75V33.04l-11.54,19.4
			c-0.31,0.56-0.62,0.75-1.25,0.75h-3.93c-0.69,0-0.94-0.19-1.25-0.75L257,33.04v29.57c0,0.44-0.31,0.75-0.75,0.75h-5.24
			c-0.37,0-0.75-0.31-0.75-0.75V21.68c0-0.44,0.38-0.81,0.75-0.81h5.55c0.62,0,1,0.06,1.37,0.81l13.91,23.46l13.91-23.46
			c0.44-0.75,0.81-0.81,1.43-0.81h5.55c0.44,0,0.75,0.37,0.75,0.81V62.61z"/>
		<path class="st4" d="M339.86,62.61c0,0.44-0.31,0.75-0.75,0.75h-5.43c-0.44,0-0.81-0.31-0.81-0.75V49.45h-20.46v13.17
			c0,0.44-0.37,0.75-0.81,0.75h-5.43c-0.44,0-0.75-0.31-0.75-0.75V38.28c0-4.99,1.81-10.23,5.74-13.79
			c2.81-2.5,6.55-4.18,11.48-4.18c4.93,0,8.8,1.68,11.54,4.18c3.87,3.56,5.68,8.8,5.68,13.79V62.61z M315.34,29.73
			c-1.93,2.12-2.93,5.18-2.93,8.86v4.68h20.46v-4.68c0-3.68-0.94-6.8-2.87-8.86c-1.75-1.93-4.43-2.93-7.36-2.93
			S317.15,27.86,315.34,29.73z"/>
	</g>
	<g>
		<path class="st4" d="M41.03,24.11c-0.76-0.18-1.53,0.3-1.71,1.06c-0.17,0.76,0.3,1.53,1.06,1.71c2.31,0.54,4.45,1.84,6.02,3.87
			c1.7,2.21,2.4,4.87,2.18,7.45c-0.07,0.78,0.51,1.47,1.29,1.54c0.78,0.07,1.47-0.51,1.54-1.29c0.29-3.26-0.6-6.64-2.76-9.43
			C46.68,26.45,43.95,24.79,41.03,24.11z"/>
		<path class="st4" d="M39.01,1.98c-21.08,0-38.16,17.09-38.16,38.16c0,21.08,17.09,38.16,38.16,38.16
			c21.08,0,38.16-17.09,38.16-38.16C77.18,19.06,60.09,1.98,39.01,1.98z M58.46,36.09c-0.28,2.13-1.36,4.15-3.19,5.57
			c-0.55,0.43-0.7,1.18-0.39,1.78l-0.04,0.02c0.06,0.06,0.11,0.12,0.17,0.19c1.41,1.84,1.95,4.06,1.68,6.19
			c-0.28,2.13-1.36,4.15-3.19,5.56c-1.84,1.42-4.06,1.95-6.19,1.68c-1.4-0.18-2.75-0.72-3.92-1.58c0.91-1.87,1.37-3.93,1.35-6
			c-0.01-0.78-0.65-1.41-1.43-1.41c-0.78,0.01-1.41,0.65-1.41,1.43c0.02,3.22-1.39,6.39-4.13,8.51c-2.33,1.8-5.16,2.48-7.87,2.13
			c-2.71-0.35-5.27-1.73-7.07-4.06c-1.67-2.16-2.37-4.74-2.19-7.26c0.18-2.52,1.25-4.96,3.14-6.82c0.31-0.31,0.46-0.74,0.41-1.17
			c-0.05-0.44-0.3-0.82-0.67-1.05c-0.86-0.52-1.63-1.19-2.27-2.03c-1.42-1.84-1.95-4.06-1.68-6.19c0.28-2.13,1.36-4.15,3.19-5.56
			c1.27-0.98,2.71-1.53,4.19-1.69c1.48-0.16,2.98,0.07,4.34,0.67c0.37,0.17,0.79,0.16,1.16,0c0.37-0.17,0.65-0.48,0.77-0.87
			c0.5-1.58,1.46-3.01,2.86-4.1c1.84-1.42,4.06-1.95,6.19-1.68c2.13,0.28,4.15,1.36,5.56,3.19c0.91,1.18,1.45,2.52,1.65,3.91
			c0.09,0.66,0.63,1.16,1.3,1.21c2.29,0.18,4.49,1.27,6,3.23C58.2,31.74,58.74,33.96,58.46,36.09z"/>
	</g>
</g>
</svg>
